<svg width="18" height="20" viewBox="0 0 18 20" fill="none" xmlns="http://www.w3.org/2000/svg">
<path d="M17.1338 11.029L15.6939 5.61782C15.2719 4.03255 14.3546 2.64013 13.088 1.66189C11.8213 0.683647 10.278 0.17572 8.70321 0.218845C7.12847 0.26197 5.61271 0.853673 4.39688 1.8999C3.18105 2.94613 2.33491 4.38684 1.99297 5.99302L0.878193 11.2293C0.755056 11.8079 0.757903 12.408 0.886524 12.9853C1.01514 13.5626 1.26625 14.1023 1.62131 14.5646C1.97637 15.027 2.42632 15.4001 2.93793 15.6565C3.44954 15.9129 4.00975 16.0461 4.5772 16.046H5.42143C5.59536 16.9407 6.06008 17.7451 6.73684 18.3229C7.4136 18.9007 8.26077 19.2163 9.13483 19.2163C10.0089 19.2163 10.8561 18.9007 11.5328 18.3229C12.2096 17.7451 12.6743 16.9407 12.8482 16.046H13.4833C14.0674 16.0461 14.6437 15.9051 15.167 15.634C15.6904 15.3629 16.1466 14.9691 16.5001 14.4834C16.8536 13.9976 17.0948 13.4331 17.2049 12.8339C17.3149 12.2346 17.2901 11.6169 17.1338 11.029ZM9.13483 17.6292C8.66629 17.6272 8.20979 17.474 7.82779 17.1906C7.44579 16.9072 7.15694 16.5075 7.00076 16.046H11.2689C11.1127 16.5075 10.8239 16.9072 10.4419 17.1906C10.0599 17.474 9.60337 17.6272 9.13483 17.6292ZM15.293 13.5249C15.0818 13.8175 14.8082 14.0546 14.494 14.2175C14.1797 14.3803 13.8334 14.4643 13.4825 14.4629H4.5772C4.23676 14.4628 3.90069 14.3829 3.59378 14.229C3.28687 14.0752 3.01697 13.8513 2.80398 13.5739C2.59099 13.2965 2.44037 12.9726 2.36322 12.6263C2.28607 12.28 2.28438 11.92 2.35825 11.5728L3.47227 6.33577C3.74081 5.07417 4.4054 3.94253 5.36039 3.12075C6.31538 2.29897 7.50595 1.83422 8.74286 1.80037C9.97976 1.76653 11.192 2.16553 12.1869 2.93395C13.1817 3.70238 13.9021 4.79612 14.2336 6.04131L15.6734 11.4525C15.7686 11.8051 15.7837 12.1759 15.7177 12.5357C15.6517 12.8954 15.5063 13.2341 15.293 13.5249Z" fill="#434343"/>
</svg>
