<svg width="8" height="12" viewBox="0 0 8 12" fill="none" xmlns="http://www.w3.org/2000/svg">
<path d="M1.58069 0.359588C1.6868 0.358974 1.792 0.379313 1.89024 0.419439C1.98848 0.459565 2.07783 0.51869 2.15317 0.593422L6.99111 5.43136C7.14129 5.58243 7.22559 5.7868 7.22559 5.99982C7.22559 6.21284 7.14129 6.4172 6.99111 6.56827L2.15317 11.4062C1.99892 11.5383 1.80051 11.6073 1.59758 11.5995C1.39464 11.5917 1.20214 11.5075 1.05854 11.3639C0.914939 11.2203 0.830813 11.0278 0.822975 10.8249C0.815136 10.622 0.884162 10.4235 1.01626 10.2693L5.28171 6.00385L1.01626 1.7384C0.903034 1.6261 0.825651 1.48275 0.793893 1.32648C0.762136 1.1702 0.777432 1.00802 0.837846 0.860433C0.898261 0.712849 1.00108 0.586494 1.1333 0.497345C1.26553 0.408195 1.42122 0.360256 1.58069 0.359588Z" fill="#1E1E1E"/>
</svg>
