<svg width="8" height="12" viewBox="0 0 8 12" fill="none" xmlns="http://www.w3.org/2000/svg">
<path d="M6.41933 11.6405C6.31321 11.6411 6.20802 11.6208 6.10978 11.5807C6.01154 11.5406 5.92218 11.4814 5.84684 11.4067L1.0089 6.56876C0.858724 6.41769 0.774429 6.21332 0.774429 6.00031C0.774429 5.78729 0.858724 5.58292 1.0089 5.43185L5.84684 0.59391C6.00109 0.461814 6.19951 0.392787 6.40244 0.400626C6.60537 0.408464 6.79787 0.492589 6.94147 0.636191C7.08508 0.779793 7.1692 0.972294 7.17704 1.17523C7.18488 1.37816 7.11585 1.57657 6.98376 1.73083L2.71831 5.99627L6.98376 10.2617C7.09698 10.374 7.17436 10.5174 7.20612 10.6736C7.23788 10.8299 7.22258 10.9921 7.16217 11.1397C7.10175 11.2873 6.99894 11.4136 6.86671 11.5028C6.73449 11.5919 6.5788 11.6399 6.41933 11.6405Z" fill="#1E1E1E"/>
</svg>
