<svg width="21" height="24" viewBox="0 0 21 24" fill="none" xmlns="http://www.w3.org/2000/svg">
<path d="M20.1516 8.09277V22.3457C20.1516 22.8433 19.7444 23.25 19.2463 23.25H1.65454C1.15646 23.25 0.750244 22.8432 0.750244 22.3457V8.09277H20.1516ZM14.1731 12.127C13.6055 11.5595 12.6855 11.5599 12.1184 12.127L9.50806 14.7373L8.8313 14.0605L8.72095 13.96C8.15001 13.4943 7.30782 13.5284 6.77563 14.0605H6.77466C6.20833 14.6279 6.20819 15.5478 6.77563 16.1152L8.48071 17.8203C8.76386 18.104 9.13713 18.2461 9.50806 18.2461C9.87959 18.2461 10.2532 18.1035 10.5364 17.8203L14.1741 14.1826C14.7417 13.6149 14.7407 12.6946 14.1731 12.127ZM16.1965 0.75C16.4087 0.750032 16.6095 0.865545 16.7161 1.0498L19.1086 5.18652H11.928V0.75H16.1965ZM4.70532 0.75H9.02075V5.18652H1.80103L4.18481 1.0498L4.18579 1.05078C4.29253 0.865812 4.49257 0.750051 4.70532 0.75Z" stroke="#777777" stroke-width="1.5"/>
</svg>
