<svg width="28" height="28" viewBox="0 0 28 28" fill="none" xmlns="http://www.w3.org/2000/svg">
<g clip-path="url(#clip0_157_1011)">
<path d="M21 27.9924C19.6156 27.9924 18.2622 27.5819 17.111 26.8127C15.9599 26.0436 15.0627 24.9503 14.5329 23.6712C14.0031 22.3921 13.8644 20.9847 14.1345 19.6268C14.4046 18.2689 15.0713 17.0217 16.0503 16.0427C17.0293 15.0637 18.2765 14.397 19.6344 14.1269C20.9923 13.8568 22.3997 13.9955 23.6788 14.5253C24.9579 15.0551 26.0512 15.9523 26.8203 17.1034C27.5895 18.2546 28 19.608 28 20.9924C27.9979 22.8483 27.2597 24.6275 25.9474 25.9398C24.6351 27.2521 22.8559 27.9903 21 27.9924ZM21 15.9924C20.0111 15.9924 19.0444 16.2857 18.2222 16.8351C17.3999 17.3845 16.7591 18.1654 16.3806 19.079C16.0022 19.9926 15.9032 20.998 16.0961 21.9679C16.289 22.9378 16.7652 23.8287 17.4645 24.528C18.1638 25.2272 19.0547 25.7034 20.0246 25.8964C20.9945 26.0893 21.9998 25.9903 22.9135 25.6118C23.8271 25.2334 24.608 24.5925 25.1574 23.7703C25.7068 22.948 26 21.9813 26 20.9924C25.9984 19.6668 25.4712 18.396 24.5338 17.4587C23.5965 16.5213 22.3256 15.994 21 15.9924Z" fill="#777777"/>
<path d="M16.55 26.0025H2.18003C1.59945 25.999 1.04393 25.7655 0.635271 25.3531C0.226611 24.9407 -0.00183189 24.3831 3.15223e-05 23.8025V2.73247C-0.00212704 2.32918 0.106612 1.93306 0.314365 1.58739C0.522118 1.24173 0.820891 0.959817 1.17803 0.772473C1.52688 0.588946 1.91943 0.504757 2.31285 0.529093C2.70628 0.553428 3.08546 0.685353 3.40903 0.910473C3.66671 1.1251 3.99496 1.2363 4.33003 1.22247C4.73084 1.22971 5.11853 1.07965 5.41003 0.804473C6.04721 0.285175 6.84404 0.00159645 7.66603 0.00159645C8.48802 0.00159645 9.28485 0.285175 9.92203 0.804473C10.2098 1.07765 10.5933 1.22702 10.99 1.22047C11.3906 1.22755 11.7781 1.07792 12.07 0.803473C12.709 0.283745 13.5074 0 14.331 0C15.1546 0 15.9531 0.283745 16.592 0.803473C16.8798 1.07665 17.2633 1.22602 17.66 1.21947C17.9917 1.2362 18.3177 1.12931 18.575 0.919473C18.8972 0.689228 19.2768 0.552602 19.6717 0.524717C20.0667 0.496831 20.4617 0.578773 20.813 0.761473C21.172 0.947674 21.4727 1.22921 21.6821 1.57516C21.8915 1.92111 22.0015 2.31809 22 2.72247V14.9925C22 15.2577 21.8947 15.512 21.7071 15.6996C21.5196 15.8871 21.2652 15.9925 21 15.9925C20.7348 15.9925 20.4805 15.8871 20.2929 15.6996C20.1054 15.512 20 15.2577 20 14.9925V2.72247C20.0013 2.68484 19.992 2.64761 19.973 2.61506C19.9541 2.58251 19.9264 2.55596 19.893 2.53847C19.869 2.52431 19.8412 2.51778 19.8133 2.51974C19.7855 2.52171 19.7589 2.53207 19.737 2.54947C19.1407 3.00212 18.4085 3.23935 17.66 3.22247C16.8388 3.23136 16.0413 2.94778 15.41 2.42247C15.1144 2.1539 14.7294 2.0051 14.33 2.0051C13.9307 2.0051 13.5456 2.1539 13.25 2.42247C12.6132 2.94162 11.8167 3.22512 10.995 3.22512C10.1734 3.22512 9.3769 2.94162 8.74003 2.42247C8.44652 2.15453 8.06345 2.00598 7.66603 2.00598C7.26861 2.00598 6.88555 2.15453 6.59203 2.42247C5.95706 2.94947 5.15514 3.23308 4.33003 3.22247C3.58144 3.23757 2.84989 2.99818 2.25503 2.54347C2.23271 2.52945 2.20689 2.522 2.18053 2.522C2.15417 2.522 2.12835 2.52945 2.10603 2.54347C2.07207 2.56146 2.04402 2.58886 2.02522 2.62237C2.00642 2.65589 1.99767 2.69412 2.00003 2.73247V23.8025C1.99835 23.8526 2.01616 23.9015 2.04972 23.9388C2.08329 23.976 2.12999 23.9989 2.18003 24.0025H16.55C16.8152 24.0025 17.0696 24.1078 17.2571 24.2954C17.4447 24.4829 17.55 24.7373 17.55 25.0025C17.55 25.2677 17.4447 25.522 17.2571 25.7096C17.0696 25.8971 16.8152 26.0025 16.55 26.0025Z" fill="#777777"/>
<path d="M16.6 8.99744H9.20004C8.93483 8.99744 8.68047 8.89208 8.49294 8.70454C8.3054 8.51701 8.20004 8.26265 8.20004 7.99744C8.20004 7.73222 8.3054 7.47787 8.49294 7.29033C8.68047 7.10279 8.93483 6.99744 9.20004 6.99744H16.6C16.8653 6.99744 17.1196 7.10279 17.3071 7.29033C17.4947 7.47787 17.6 7.73222 17.6 7.99744C17.6 8.26265 17.4947 8.51701 17.3071 8.70454C17.1196 8.89208 16.8653 8.99744 16.6 8.99744Z" fill="#777777"/>
<path d="M5.60302 9.19646C6.26521 9.19646 6.80202 8.65965 6.80202 7.99746C6.80202 7.33527 6.26521 6.79846 5.60302 6.79846C4.94083 6.79846 4.40402 7.33527 4.40402 7.99746C4.40402 8.65965 4.94083 9.19646 5.60302 9.19646Z" fill="#777777"/>
<path d="M16.6 14.1925H9.20004C8.93483 14.1925 8.68047 14.0871 8.49294 13.8996C8.3054 13.7121 8.20004 13.4577 8.20004 13.1925C8.20004 12.9273 8.3054 12.6729 8.49294 12.4854C8.68047 12.2979 8.93483 12.1925 9.20004 12.1925H16.6C16.8653 12.1925 17.1196 12.2979 17.3071 12.4854C17.4947 12.6729 17.6 12.9273 17.6 13.1925C17.6 13.4577 17.4947 13.7121 17.3071 13.8996C17.1196 14.0871 16.8653 14.1925 16.6 14.1925Z" fill="#777777"/>
<path d="M5.60302 14.3945C6.26521 14.3945 6.80202 13.8576 6.80202 13.1955C6.80202 12.5333 6.26521 11.9965 5.60302 11.9965C4.94083 11.9965 4.40402 12.5333 4.40402 13.1955C4.40402 13.8576 4.94083 14.3945 5.60302 14.3945Z" fill="#777777"/>
<path d="M15 19.1925H9.20004C8.93483 19.1925 8.68047 19.0871 8.49294 18.8996C8.3054 18.7121 8.20004 18.4577 8.20004 18.1925C8.20004 17.9273 8.3054 17.6729 8.49294 17.4854C8.68047 17.2979 8.93483 17.1925 9.20004 17.1925H15C15.2653 17.1925 15.5196 17.2979 15.7072 17.4854C15.8947 17.6729 16 17.9273 16 18.1925C16 18.4577 15.8947 18.7121 15.7072 18.8996C15.5196 19.0871 15.2653 19.1925 15 19.1925Z" fill="#777777"/>
<path d="M5.60302 19.3945C6.26521 19.3945 6.80202 18.8576 6.80202 18.1955C6.80202 17.5333 6.26521 16.9965 5.60302 16.9965C4.94083 16.9965 4.40402 17.5333 4.40402 18.1955C4.40402 18.8576 4.94083 19.3945 5.60302 19.3945Z" fill="#777777"/>
<path d="M20.333 23.4505C20.068 23.4507 19.8137 23.3457 19.626 23.1585L18.293 21.8245C18.1109 21.6359 18.0101 21.3833 18.0124 21.1211C18.0146 20.8589 18.1198 20.6081 18.3052 20.4227C18.4906 20.2373 18.7414 20.1321 19.0036 20.1298C19.2658 20.1275 19.5184 20.2283 19.707 20.4105L20.333 21.0365L22.293 19.0765C22.386 18.9836 22.4964 18.91 22.6178 18.8598C22.7392 18.8096 22.8694 18.7838 23.0007 18.7839C23.1321 18.784 23.2622 18.81 23.3836 18.8604C23.5049 18.9107 23.6152 18.9845 23.708 19.0775C23.8009 19.1705 23.8745 19.2808 23.9247 19.4022C23.9749 19.5237 24.0007 19.6538 24.0006 19.7852C24.0005 19.9166 23.9745 20.0467 23.9242 20.168C23.8738 20.2894 23.8 20.3996 23.707 20.4925L21.041 23.1595C20.9479 23.2521 20.8375 23.3255 20.716 23.3754C20.5945 23.4253 20.4644 23.4509 20.333 23.4505Z" fill="#777777"/>
</g>
<defs>
<clipPath id="clip0_157_1011">
<rect width="28" height="27.9925" fill="white"/>
</clipPath>
</defs>
</svg>
