<svg width="24" height="21" viewBox="0 0 24 21" fill="none" xmlns="http://www.w3.org/2000/svg">
<path d="M18.3182 14.733C16.7369 14.733 15.4504 15.9553 15.4504 17.4578C15.4504 18.9602 16.7369 20.1826 18.3182 20.1826C19.8995 20.1826 21.1861 18.9602 21.1861 17.4578C21.1861 15.9553 19.8995 14.733 18.3182 14.733ZM18.3182 18.5477C17.6856 18.5477 17.1711 18.0589 17.1711 17.4578C17.1711 16.8567 17.6856 16.3679 18.3182 16.3679C18.9509 16.3679 19.4654 16.8567 19.4654 17.4578C19.4654 18.0589 18.9509 18.5477 18.3182 18.5477ZM22.9246 4.20187C22.8441 4.10414 22.7413 4.02509 22.624 3.97075C22.5066 3.91641 22.3777 3.88819 22.2472 3.88825H5.41806L4.64374 0.81006C4.59874 0.631341 4.49169 0.472231 4.33987 0.358389C4.18805 0.244546 4.00029 0.182606 3.80688 0.182556H0.967711C0.492524 0.182513 0.107361 0.548465 0.107361 0.99995C0.107361 1.45143 0.492524 1.81739 0.967711 1.81739H3.12779L5.92393 12.9335C5.96888 13.1122 6.07591 13.2714 6.22774 13.3852C6.37958 13.4991 6.56736 13.561 6.76079 13.561H20.1537C20.5492 13.561 20.8938 13.3049 20.9888 12.9403L23.0823 4.90211C23.1136 4.78166 23.1156 4.65604 23.0883 4.53474C23.0609 4.41343 23.005 4.29961 22.9246 4.20187ZM19.4805 11.9262H7.43987L5.82928 5.52312H21.1479L19.4805 11.9262ZM7.90792 14.733C6.32657 14.733 5.04009 15.9553 5.04009 17.4578C5.04009 18.9602 6.32661 20.1826 7.90792 20.1826C9.48922 20.1826 10.7758 18.9602 10.7758 17.4578C10.7758 15.9553 9.48922 14.733 7.90792 14.733ZM7.90792 18.5477C7.27528 18.5477 6.76079 18.0589 6.76079 17.4578C6.76079 16.8567 7.27528 16.3679 7.90792 16.3679C8.54056 16.3679 9.05505 16.8567 9.05505 17.4578C9.05505 18.0589 8.54056 18.5477 7.90792 18.5477Z" fill="#434343"/>
</svg>
