<svg width="36" height="36" viewBox="0 0 36 36" fill="none" xmlns="http://www.w3.org/2000/svg">
<g clip-path="url(#clip0_723_5798)">
<path d="M35.1302 18.4348C35.1302 28.1357 27.2661 36 17.5652 36C7.86429 36 0 28.1357 0 18.4348C0 8.73389 7.86429 0.869873 17.5652 0.869873C27.2661 0.869873 35.1302 8.73389 35.1302 18.4348Z" fill="#3A754D"/>
<path d="M12.9419 10.125H21.7966C25.8376 10.125 29.1135 13.4008 29.1135 17.4419C29.1135 20.3651 27.3994 22.8875 24.9214 24.0598C23.926 24.5305 23.288 25.5287 23.288 26.6295V28.1992C23.288 28.7957 22.5168 29.0338 22.1806 28.5408L20.4472 25.9983C19.9185 25.2227 19.0404 24.7588 18.1013 24.7588H12.9419C8.90085 24.7588 5.625 21.4829 5.625 17.4419C5.625 13.4008 8.90085 10.125 12.9419 10.125Z" fill="white"/>
<path d="M21.1127 23.8268H15.953C11.9119 23.8268 8.63608 20.5507 8.63608 16.5099C8.63608 13.846 10.0599 11.5147 12.188 10.2351C8.50122 10.6125 5.625 13.7271 5.625 17.5135C5.625 21.5546 8.90085 24.8304 12.9419 24.8304H18.1016C19.0404 24.8304 19.9185 25.2946 20.4472 26.0703L22.1806 28.6125C22.5168 29.1055 23.288 28.8676 23.288 28.2708V26.7011C23.288 26.2128 23.4141 25.7448 23.6409 25.3339L23.4583 25.0667C22.9296 24.2907 22.0515 23.8268 21.1127 23.8268Z" fill="#DADADA"/>
<path d="M23.6727 17.5817C23.6727 18.3277 23.0679 18.9325 22.322 18.9325C21.576 18.9325 20.9712 18.3277 20.9712 17.5817C20.9712 16.8358 21.576 16.231 22.322 16.231C23.0679 16.231 23.6727 16.8358 23.6727 17.5817Z" fill="#3A754D"/>
<path d="M18.7198 17.5817C18.7198 18.3277 18.1153 18.9325 17.3693 18.9325C16.6234 18.9325 16.0186 18.3277 16.0186 17.5817C16.0186 16.8358 16.6234 16.231 17.3693 16.231C18.1153 16.231 18.7198 16.8358 18.7198 17.5817Z" fill="#3A754D"/>
<path d="M13.7672 17.5817C13.7672 18.3277 13.1624 18.9325 12.4164 18.9325C11.6705 18.9325 11.0657 18.3277 11.0657 17.5817C11.0657 16.8358 11.6705 16.231 12.4164 16.231C13.1624 16.231 13.7672 16.8358 13.7672 17.5817Z" fill="#3A754D"/>
</g>
<defs>
<clipPath id="clip0_723_5798">
<rect width="36" height="36" fill="white"/>
</clipPath>
</defs>
</svg>
