<svg width="20" height="18" viewBox="0 0 20 18" fill="none" xmlns="http://www.w3.org/2000/svg">
<path d="M17.5 9.35317V8.1665C17.5 6.17738 16.7098 4.26973 15.3033 2.8632C13.8968 1.45668 11.9891 0.666504 10 0.666504C8.01088 0.666504 6.10322 1.45668 4.6967 2.8632C3.29018 4.26973 2.5 6.17738 2.5 8.1665V9.35317C1.62597 9.73803 0.910667 10.4115 0.473851 11.2607C0.0370351 12.11 -0.094783 13.0835 0.100464 14.0184C0.295711 14.9532 0.806172 15.7926 1.54639 16.396C2.28661 16.9995 3.21166 17.3303 4.16667 17.3332C4.60869 17.3332 5.03262 17.1576 5.34518 16.845C5.65774 16.5325 5.83333 16.1085 5.83333 15.6665V10.6665C5.83333 10.2245 5.65774 9.80055 5.34518 9.48799C5.03262 9.17543 4.60869 8.99984 4.16667 8.99984V8.1665C4.16667 6.61941 4.78125 5.13568 5.87521 4.04171C6.96917 2.94775 8.4529 2.33317 10 2.33317C11.5471 2.33317 13.0308 2.94775 14.1248 4.04171C15.2188 5.13568 15.8333 6.61941 15.8333 8.1665V8.99984C15.3913 8.99984 14.9674 9.17543 14.6548 9.48799C14.3423 9.80055 14.1667 10.2245 14.1667 10.6665V15.6665H11.6667C11.4457 15.6665 11.2337 15.7543 11.0774 15.9106C10.9211 16.0669 10.8333 16.2788 10.8333 16.4998C10.8333 16.7209 10.9211 16.9328 11.0774 17.0891C11.2337 17.2454 11.4457 17.3332 11.6667 17.3332H15.8333C16.7883 17.3303 17.7134 16.9995 18.4536 16.396C19.1938 15.7926 19.7043 14.9532 19.8995 14.0184C20.0948 13.0835 19.963 12.11 19.5261 11.2607C19.0893 10.4115 18.374 9.73803 17.5 9.35317ZM4.16667 15.6665C3.50362 15.6665 2.86774 15.4031 2.3989 14.9343C1.93006 14.4654 1.66667 13.8295 1.66667 13.1665C1.66667 12.5035 1.93006 11.8676 2.3989 11.3987C2.86774 10.9299 3.50362 10.6665 4.16667 10.6665V15.6665ZM15.8333 15.6665V10.6665C16.4964 10.6665 17.1323 10.9299 17.6011 11.3987C18.0699 11.8676 18.3333 12.5035 18.3333 13.1665C18.3333 13.8295 18.0699 14.4654 17.6011 14.9343C17.1323 15.4031 16.4964 15.6665 15.8333 15.6665Z" fill="#5E0000"/>
</svg>
