<svg width="16" height="20" viewBox="0 0 16 20" fill="none" xmlns="http://www.w3.org/2000/svg">
<path d="M8 10C8.98891 10 9.95561 9.70676 10.7779 9.15735C11.6001 8.60794 12.241 7.82705 12.6194 6.91342C12.9978 5.99979 13.0969 4.99446 12.9039 4.02455C12.711 3.05465 12.2348 2.16373 11.5355 1.46447C10.8363 0.765206 9.94536 0.289002 8.97545 0.0960758C8.00555 -0.0968503 7.00021 0.00216643 6.08658 0.380605C5.17295 0.759043 4.39206 1.39991 3.84265 2.22215C3.29324 3.0444 3 4.0111 3 5C3.00132 6.32568 3.52853 7.59668 4.46593 8.53407C5.40332 9.47147 6.67432 9.99868 8 10ZM8 1.66667C8.65927 1.66667 9.30374 1.86217 9.8519 2.22844C10.4001 2.59471 10.8273 3.1153 11.0796 3.72439C11.3319 4.33348 11.3979 5.0037 11.2693 5.6503C11.1407 6.29691 10.8232 6.89085 10.357 7.35703C9.89085 7.8232 9.2969 8.14067 8.6503 8.26929C8.0037 8.3979 7.33348 8.33189 6.72439 8.0796C6.1153 7.82731 5.59471 7.40007 5.22843 6.8519C4.86216 6.30374 4.66667 5.65927 4.66667 5C4.66667 4.11595 5.01786 3.2681 5.64298 2.64298C6.2681 2.01786 7.11594 1.66667 8 1.66667ZM8 11.6667C6.01155 11.6689 4.10518 12.4598 2.69914 13.8658C1.29309 15.2718 0.502206 17.1782 0.5 19.1667C0.5 19.3877 0.587797 19.5996 0.744078 19.7559C0.900358 19.9122 1.11232 20 1.33333 20C1.55435 20 1.76631 19.9122 1.92259 19.7559C2.07887 19.5996 2.16667 19.3877 2.16667 19.1667C2.16667 17.6196 2.78125 16.1358 3.87521 15.0419C4.96917 13.9479 6.4529 13.3333 8 13.3333C9.5471 13.3333 11.0308 13.9479 12.1248 15.0419C13.2188 16.1358 13.8333 17.6196 13.8333 19.1667C13.8333 19.3877 13.9211 19.5996 14.0774 19.7559C14.2337 19.9122 14.4457 20 14.6667 20C14.8877 20 15.0996 19.9122 15.2559 19.7559C15.4122 19.5996 15.5 19.3877 15.5 19.1667C15.4978 17.1782 14.7069 15.2718 13.3009 13.8658C11.8948 12.4598 9.98845 11.6689 8 11.6667Z" fill="#5E0000"/>
</svg>
