<?xml version="1.0" encoding="utf-8"?>
<!-- Uploaded to: SVG Repo, www.svgrepo.com, Generator: SVG Repo Mixer Tools -->
<svg fill="#000000" height="800px" width="800px" version="1.1" xmlns="http://www.w3.org/2000/svg" xmlns:xlink="http://www.w3.org/1999/xlink" 
	 viewBox="0 0 127.5 128" xml:space="preserve">
<g id="_x31_">
</g>
<g id="Child">
</g>
<g id="Man">
	<g>
		<path d="M28.4,22.7c5.7,0,10.3-4.6,10.3-10.3C38.8,6.6,34.1,2,28.4,2c-3.9,0-7.2,2.1-9,5.2c-0.2,0.4-0.5,0.7-0.8,1
			c-2,2-5.3,2-7.3,0c-0.3-0.3-0.6-0.6-0.8-1C11.9,16,19.4,22.7,28.4,22.7z"/>
		<path d="M50.5,74.3c2.5-0.3,4.3-2.5,4-5l-3.9-32.9c-0.9-6.3-6.3-11.1-12.8-11.1H18c-6.5,0-11.9,4.8-12.8,11.1L1.3,69.2
			c-0.3,2.5,1.5,4.7,4,5c2.5,0.3,4.7-1.5,5-4L14,39.8c0.1-0.6,0.6-1.1,1.3-1.1c0.7,0,1.3,0.6,1.3,1.3c0,0.1,0,0.2,0,0.2
			c0,0-2.6,21.6-2.7,22.1c-0.1,0.6-0.1,1.2-0.1,1.7v55c0,3.9,2.9,7,6.5,7c3.6,0,6.5-3.1,6.5-7V74.3c0-0.7,0.6-1.3,1.3-1.3
			s1.3,0.6,1.3,1.3V119c0,3.9,2.9,7,6.5,7s6.5-3.1,6.5-7V64c0-0.5,0-1.2-0.1-1.7c-0.1-0.4-2.7-22.1-2.7-22.1s0-0.1,0-0.2
			c0-0.7,0.6-1.3,1.3-1.3c0.6,0,1.1,0.5,1.3,1.1l3.6,30.6C45.8,72.8,48,74.6,50.5,74.3z"/>
		<circle cx="63.2" cy="77" r="7"/>
		<path d="M70.5,85.8H55.9c-3.7,0.2-6.7,3.2-6.7,7v9.7c0,1.4,1.2,2.6,2.6,2.6c1.4,0,2.6-1.2,2.6-2.6v-8.1c0-0.5,0.4-0.9,0.9-0.9
			c0.5,0,0.9,0.4,0.9,0.9v28.6c0,1.7,1.3,3.1,3.1,3.1s3.1-1.3,3.1-3.1v-14.4c0-0.5,0.4-0.9,0.9-0.9c0.5,0,0.9,0.4,0.9,0.9v14.4
			c0,1.7,1.3,3.1,3.1,3.1s3.1-1.3,3.1-3.1V94.3c0-0.5,0.4-0.9,0.9-0.9c0.5,0,0.9,0.4,0.9,0.9v8.1c0,1.4,1.2,2.6,2.6,2.6
			c1.4,0,2.6-1.2,2.6-2.6v-9.7C77.2,89,74.3,86,70.5,85.8z"/>
		<circle cx="99.1" cy="11.8" r="10.4"/>
		<path d="M112.1,24.8H86.2c-7.2,0-12.9,5.8-12.9,12.9v31.7c0,2.5,2,4.6,4.6,4.6c2.6,0,4.6-2,4.6-4.6V40.3c0-0.7,0.6-1.3,1.3-1.3
			s1.3,0.6,1.3,1.3v78.6c0,3.9,2.9,7.1,6.5,7.1c3.6,0,6.5-3.2,6.5-7.1V74.1c0-0.7,0.6-1.3,1.3-1.3s1.3,0.6,1.3,1.3v44.8
			c0,3.9,2.9,7.1,6.5,7.1c3.6,0,6.5-3.2,6.5-7.1V40.3c0-0.7,0.6-1.3,1.3-1.3c0.7,0,1.3,0.6,1.3,1.3v29.2c0,2.5,2,4.6,4.6,4.6
			c2.6,0,4.6-2,4.6-4.6V37.8C125.1,30.6,119.2,24.8,112.1,24.8z"/>
	</g>
</g>
</svg>