<svg width="20" height="20" viewBox="0 0 20 20" fill="none" xmlns="http://www.w3.org/2000/svg">
<path d="M7.5 9.16633C7.27899 9.16633 7.06702 9.07854 6.91074 8.92226C6.75446 8.76598 6.66667 8.55402 6.66667 8.333C6.66667 7.243 7.53167 6.76717 7.90083 6.56383C8.1425 6.43133 8.39667 6.118 8.31917 5.6755C8.28737 5.51206 8.20748 5.36183 8.08974 5.2441C7.972 5.12636 7.82178 5.04647 7.65833 5.01467C7.53666 4.99075 7.41118 4.99451 7.29116 5.02567C7.17114 5.05683 7.05967 5.11459 6.965 5.19467C6.87134 5.27272 6.79604 5.37047 6.74448 5.48095C6.69291 5.59142 6.66634 5.71192 6.66667 5.83383C6.66667 6.05485 6.57887 6.26681 6.42259 6.42309C6.26631 6.57937 6.05435 6.66717 5.83333 6.66717C5.61232 6.66717 5.40036 6.57937 5.24408 6.42309C5.0878 6.26681 5 6.05485 5 5.83383C4.9994 5.46758 5.07939 5.10568 5.2343 4.7738C5.38921 4.44191 5.61524 4.14818 5.89636 3.91342C6.17749 3.67866 6.50682 3.50862 6.861 3.41537C7.21519 3.32212 7.58555 3.30794 7.94583 3.37383C8.44559 3.46712 8.90544 3.70942 9.26492 4.06891C9.62441 4.4284 9.86672 4.88824 9.96 5.388C10.0515 5.90345 9.97969 6.4346 9.7547 6.90729C9.52971 7.37998 9.16273 7.77062 8.705 8.02467C8.3325 8.22967 8.3325 8.28967 8.3325 8.33383C8.3325 8.55485 8.2447 8.76681 8.08842 8.92309C7.93214 9.07937 7.72018 9.16717 7.49917 9.16717L7.5 9.16633ZM7.5 9.99967C7.22373 9.99967 6.95878 10.1094 6.76343 10.3048C6.56808 10.5001 6.45833 10.7651 6.45833 11.0413C6.45833 11.3176 6.56808 11.5826 6.76343 11.7779C6.95878 11.9733 7.22373 12.083 7.5 12.083C7.77627 12.083 8.04122 11.9733 8.23657 11.7779C8.43192 11.5826 8.54167 11.3176 8.54167 11.0413C8.54167 10.7651 8.43192 10.5001 8.23657 10.3048C8.04122 10.1094 7.77627 9.99967 7.5 9.99967ZM16.6633 7.56633C16.6588 8.19456 16.5896 8.82065 16.4567 9.43467C17.042 9.90196 17.5146 10.495 17.8395 11.1699C18.1643 11.8447 18.3331 12.584 18.3333 13.333V17.4997C18.3333 17.7207 18.2455 17.9326 18.0893 18.0889C17.933 18.2452 17.721 18.333 17.5 18.333H13.3333C12.5844 18.3328 11.845 18.164 11.1702 17.8391C10.4954 17.5143 9.90229 17.0416 9.435 16.4563C8.83167 16.5863 8.2075 16.658 7.56667 16.663C8.72083 18.6538 10.8708 19.9997 13.3333 19.9997H17.5C18.163 19.9997 18.7989 19.7363 19.2678 19.2674C19.7366 18.7986 20 18.1627 20 17.4997V13.333C20 10.8705 18.6542 8.7205 16.6633 7.56633ZM14.9808 8.04217C15.135 5.86467 14.3408 3.73383 12.8033 2.1955C11.2658 0.657168 9.13667 -0.139499 6.9575 0.0188347C3.18583 0.285501 0 3.82383 0 7.74633V11.9447C0.000439846 12.754 0.321875 13.5302 0.893802 14.1029C1.46573 14.6756 2.24145 14.9981 3.05083 14.9997H6.78167C11.1042 14.9997 14.7058 11.9438 14.9808 8.04217ZM11.625 3.37467C12.2169 3.96742 12.6745 4.68045 12.9668 5.46547C13.2591 6.25049 13.3793 7.08916 13.3192 7.92467C13.1083 10.9063 10.1758 13.3322 6.78167 13.3322H3.05083C2.68328 13.3313 2.33109 13.1846 2.07158 12.9243C1.81207 12.664 1.66644 12.3114 1.66667 11.9438V7.7455C1.66667 4.6655 4.14333 1.888 7.075 1.6805C7.91056 1.61986 8.74939 1.73978 9.53449 2.03211C10.3196 2.32443 11.0326 2.78232 11.625 3.37467Z" fill="#5E0000"/>
</svg>
