<svg width="18" height="20" viewBox="0 0 18 20" fill="none" xmlns="http://www.w3.org/2000/svg">
<path d="M16.9962 11.029L15.5563 5.61782C15.1342 4.03255 14.217 2.64013 12.9503 1.66189C11.6837 0.683647 10.1403 0.17572 8.56558 0.218845C6.99084 0.26197 5.47508 0.853673 4.25925 1.8999C3.04341 2.94613 2.19728 4.38684 1.85534 5.99302L0.740559 11.2293C0.617422 11.8079 0.620269 12.408 0.74889 12.9853C0.87751 13.5626 1.12862 14.1023 1.48368 14.5646C1.83874 15.027 2.28868 15.4001 2.80029 15.6565C3.3119 15.9129 3.87211 16.0461 4.43956 16.046H5.28379C5.45773 16.9407 5.92245 17.7451 6.5992 18.3229C7.27596 18.9007 8.12314 19.2163 8.9972 19.2163C9.87125 19.2163 10.7184 18.9007 11.3952 18.3229C12.0719 17.7451 12.5367 16.9407 12.7106 16.046H13.3457C13.9298 16.0461 14.5061 15.9051 15.0294 15.634C15.5527 15.3629 16.009 14.9691 16.3625 14.4834C16.716 13.9976 16.9572 13.4331 17.0673 12.8339C17.1773 12.2346 17.1525 11.6169 16.9962 11.029ZM8.9972 17.6292C8.52865 17.6272 8.07216 17.474 7.69015 17.1906C7.30815 16.9072 7.0193 16.5075 6.86313 16.046H11.1313C10.9751 16.5075 10.6862 16.9072 10.3042 17.1906C9.92223 17.474 9.46574 17.6272 8.9972 17.6292ZM15.1554 13.5249C14.9442 13.8175 14.6706 14.0546 14.3563 14.2175C14.042 14.3803 13.6957 14.4643 13.3449 14.4629H4.43956C4.09913 14.4628 3.76306 14.3829 3.45615 14.229C3.14924 14.0752 2.87933 13.8513 2.66635 13.5739C2.45336 13.2965 2.30273 12.9726 2.22559 12.6263C2.14844 12.28 2.14674 11.92 2.22062 11.5728L3.33464 6.33577C3.60318 5.07417 4.26777 3.94253 5.22275 3.12075C6.17774 2.29897 7.36832 1.83422 8.60522 1.80037C9.84213 1.76653 11.0544 2.16553 12.0492 2.93395C13.0441 3.70238 13.7645 4.79612 14.0959 6.04131L15.5358 11.4525C15.631 11.8051 15.6461 12.1759 15.5801 12.5357C15.514 12.8954 15.3686 13.2341 15.1554 13.5249Z" fill="#434343"/>
</svg>
