<svg width="18" height="20" viewBox="0 0 18 20" fill="none" xmlns="http://www.w3.org/2000/svg">
<path fill-rule="evenodd" clip-rule="evenodd" d="M10.475 0.387937C10.0307 0.116978 9.5204 -0.0263672 9.00002 -0.0263672C8.47964 -0.0263672 7.96932 0.116978 7.52505 0.387937L5.8238 1.42782C5.69506 1.50695 5.55333 1.56267 5.40517 1.59239L2.2742 2.21776C1.63287 2.34595 1.05578 2.69242 0.641143 3.19819C0.226507 3.70397 -5.01502e-05 4.3378 3.05391e-05 4.99182V8.78621C3.05391e-05 14.0803 3.60311 18.6944 8.73876 19.9781C8.90951 20.0213 9.08951 20.0213 9.26025 19.9781C11.7563 19.3541 13.9731 17.9138 15.5565 15.8859C17.1399 13.858 18 11.359 18 8.78621V4.99182C18.0001 4.3378 17.7735 3.70397 17.3589 3.19819C16.9443 2.69242 16.3672 2.34595 15.7258 2.21776L12.5949 1.59239C12.4467 1.56267 12.305 1.50695 12.1762 1.42782L10.475 0.387937ZM9.00002 18.4517C11.1364 17.8913 13.027 16.6388 14.3762 14.8901C15.7253 13.1414 16.4571 10.9949 16.4572 8.78621V4.99182C16.4572 4.69452 16.3542 4.40639 16.1658 4.17648C15.9773 3.94656 15.715 3.78906 15.4234 3.73079L12.2925 3.10439C11.9667 3.03977 11.6551 2.91788 11.3719 2.74439L9.67065 1.70451C9.46862 1.5814 9.2366 1.51628 9.00002 1.51628C8.76344 1.51628 8.53142 1.5814 8.32939 1.70451L6.62814 2.74439C6.34498 2.91788 6.0333 3.03977 5.70757 3.10439L2.5766 3.73079C2.28507 3.78906 2.02274 3.94656 1.83427 4.17648C1.6458 4.40639 1.54283 4.69452 1.54289 4.99182V8.78621C1.5429 10.9949 2.27469 13.1414 3.62388 14.8901C4.97306 16.6388 6.8636 17.8913 9.00002 18.4517Z" fill="#5E0000"/>
<path fill-rule="evenodd" clip-rule="evenodd" d="M7.97143 10.9677L11.5406 7.39963C11.6122 7.32805 11.6971 7.27126 11.7907 7.23251C11.8842 7.19377 11.9845 7.17383 12.0857 7.17383C12.187 7.17383 12.2872 7.19377 12.3807 7.23251C12.4743 7.27126 12.5593 7.32805 12.6308 7.39963C12.7024 7.47122 12.7592 7.55621 12.798 7.64975C12.8367 7.74328 12.8567 7.84353 12.8567 7.94478C12.8567 8.04602 12.8367 8.14627 12.798 8.2398C12.7592 8.33334 12.7024 8.41833 12.6308 8.48992L8.51657 12.6042C8.44502 12.6759 8.36004 12.7327 8.2665 12.7715C8.17296 12.8103 8.07269 12.8302 7.97143 12.8302C7.87016 12.8302 7.76989 12.8103 7.67635 12.7715C7.58281 12.7327 7.49784 12.6759 7.42628 12.6042L5.88343 11.0613C5.81184 10.9898 5.75505 10.9048 5.71631 10.8112C5.67757 10.7177 5.65762 10.6174 5.65762 10.5162C5.65762 10.415 5.67757 10.3147 5.71631 10.2212C5.75505 10.1276 5.81184 10.0426 5.88343 9.97106C5.95502 9.89947 6.04001 9.84268 6.13354 9.80394C6.22708 9.7652 6.32733 9.74525 6.42857 9.74525C6.52981 9.74525 6.63006 9.7652 6.7236 9.80394C6.81714 9.84268 6.90212 9.89947 6.97371 9.97106L7.97143 10.9677Z" fill="#5E0000"/>
</svg>
