<svg width="16" height="16" viewBox="0 0 16 16" fill="none" xmlns="http://www.w3.org/2000/svg">
<path d="M15.8485 15.1297L11.7175 11.0646C12.7993 9.88932 13.464 8.33494 13.464 6.6245C13.4634 2.96555 10.4497 -0.000183105 6.73171 -0.000183105C3.01376 -0.000183105 0 2.96555 0 6.6245C0 10.2834 3.01376 13.2492 6.73171 13.2492C8.33813 13.2492 9.81149 12.6935 10.9688 11.7698L15.1159 15.8508C15.3179 16.0499 15.646 16.0499 15.848 15.8508C16.0506 15.6518 16.0506 15.3287 15.8485 15.1297ZM6.73171 12.2299C3.58592 12.2299 1.03577 9.7203 1.03577 6.6245C1.03577 3.52869 3.58592 1.01906 6.73171 1.01906C9.87753 1.01906 12.4277 3.52869 12.4277 6.6245C12.4277 9.7203 9.87753 12.2299 6.73171 12.2299Z" fill="#777777"/>
</svg>
