<svg width="20" height="20" viewBox="0 0 20 20" fill="none" xmlns="http://www.w3.org/2000/svg">
<path d="M4.78085 6.47559H14.3461C14.7559 6.47559 15.0883 6.14316 15.0883 5.7334C15.0883 5.32363 14.7559 4.99121 14.3461 4.99121H4.78085C4.37109 4.99121 4.03867 5.32363 4.03867 5.7334C4.03867 6.14316 4.37109 6.47559 4.78085 6.47559ZM11.2 10.36C11.2 9.9502 10.8676 9.61777 10.4578 9.61777H4.78085C4.37109 9.61777 4.03867 9.9502 4.03867 10.36C4.03867 10.7697 4.37109 11.1021 4.78085 11.1021H10.4578C10.8676 11.1021 11.2 10.7697 11.2 10.36Z" fill="#5E0000"/>
<path d="M19.009 12.6449C19.0887 11.7727 19.1422 10.7563 19.1434 9.57148C19.141 7.34219 18.9539 5.70977 18.7543 4.51016C18.4051 2.53359 16.6098 0.738281 14.6332 0.389062C13.4336 0.189453 11.8012 0.00234375 9.57148 0C7.34219 0.00234375 5.70937 0.189453 4.50977 0.389062C2.53359 0.738281 0.738281 2.53359 0.389062 4.51016C0.189453 5.70977 0.00273437 7.34219 0 9.57148C0.00273437 11.8008 0.189453 13.4336 0.389062 14.6332C0.738281 16.6098 2.53359 18.4051 4.51016 18.7543C5.70977 18.9539 7.34219 19.1406 9.57187 19.1434C10.7562 19.1422 11.7727 19.0887 12.6445 19.009C13.4195 19.6289 14.4023 20 15.4719 20C17.9727 20 20.0004 17.9727 20.0004 15.4719C20.0004 14.4023 19.6293 13.4195 19.0094 12.6449H19.009ZM9.57187 17.659C7.81328 17.657 6.23984 17.5367 4.76211 17.2914C4.10547 17.1738 3.44023 16.8055 2.88906 16.2543C2.33789 15.7031 1.96992 15.0383 1.85195 14.3813C1.60664 12.9051 1.48672 11.3316 1.48438 9.57148C1.48633 7.81211 1.60664 6.23867 1.85195 4.76172C1.96953 4.10508 2.33789 3.44023 2.88906 2.88906C3.44023 2.33789 4.10508 1.96992 4.76211 1.85195C6.23906 1.60664 7.8125 1.48672 9.57187 1.48438C11.3305 1.48633 12.9039 1.60664 14.3816 1.85195C15.0383 1.96953 15.7031 2.33789 16.2547 2.88906C16.8059 3.44023 17.1738 4.10508 17.2918 4.76211C17.5371 6.23984 17.657 7.81289 17.6594 9.57187C17.6586 10.232 17.6406 10.8652 17.6063 11.4777C16.9703 11.1371 16.2437 10.9441 15.4719 10.9441C12.9711 10.9441 10.9434 12.9715 10.9434 15.4723C10.9434 16.2441 11.1367 16.9703 11.477 17.6063C10.8645 17.6406 10.2312 17.6586 9.57148 17.659H9.57187ZM15.4719 18.5156C13.7934 18.5156 12.4277 17.1504 12.4277 15.4719C12.4277 13.7934 13.7934 12.4281 15.4719 12.4281C17.1504 12.4281 18.516 13.7934 18.516 15.4719C18.516 17.1504 17.1504 18.5156 15.4719 18.5156Z" fill="#5E0000"/>
<path d="M15.8703 16.3373C15.7758 16.3217 15.6473 16.3068 15.4719 16.3068C15.2965 16.3068 15.168 16.3217 15.0734 16.3373C14.918 16.3646 14.7766 16.5061 14.7488 16.6619C14.7332 16.7564 14.7184 16.885 14.7184 17.0604C14.7184 17.2357 14.7332 17.3643 14.7488 17.4588C14.7762 17.6143 14.9176 17.7557 15.0734 17.7834C15.168 17.799 15.2965 17.8139 15.4719 17.8139C15.6473 17.8139 15.7758 17.799 15.8703 17.7834C16.0258 17.7561 16.1672 17.6146 16.1949 17.4588C16.2105 17.3643 16.2254 17.2357 16.2254 17.0604C16.2254 16.885 16.2105 16.7564 16.1949 16.6619C16.1676 16.5064 16.0262 16.365 15.8703 16.3373ZM15.4715 15.8447C15.8812 15.8447 16.2137 15.5123 16.2137 15.1025V13.8643C16.2137 13.4545 15.8812 13.1221 15.4715 13.1221C15.0617 13.1221 14.7293 13.4545 14.7293 13.8643V15.1025C14.7293 15.5123 15.0617 15.8447 15.4715 15.8447Z" fill="#5E0000"/>
</svg>
