<svg width="25" height="25" viewBox="0 0 25 25" fill="none" xmlns="http://www.w3.org/2000/svg">
<g id="ticket-discount">
<g id="vuesax/linear/ticket-discount">
<g id="ticket-discount_2">
<path id="Vector" d="M20.125 13.3203C20.125 11.9403 21.245 10.8203 22.625 10.8203V9.82031C22.625 5.82031 21.625 4.82031 17.625 4.82031H7.625C3.625 4.82031 2.625 5.82031 2.625 9.82031V10.3203C4.005 10.3203 5.125 11.4403 5.125 12.8203C5.125 14.2003 4.005 15.3203 2.625 15.3203V15.8203C2.625 19.8203 3.625 20.8203 7.625 20.8203H17.625C21.625 20.8203 22.625 19.8203 22.625 15.8203C21.245 15.8203 20.125 14.7003 20.125 13.3203Z" stroke="#292D32" stroke-width="1.5" stroke-linecap="round" stroke-linejoin="round"/>
<path id="Vector_2" d="M9.625 15.5703L15.625 9.57031" stroke="#292D32" stroke-width="1.5" stroke-linecap="round" stroke-linejoin="round"/>
<path id="Vector_3" d="M15.6195 15.5703H15.6285" stroke="#292D32" stroke-width="2" stroke-linecap="round" stroke-linejoin="round"/>
<path id="Vector_4" d="M9.61951 10.0703H9.62849" stroke="#292D32" stroke-width="2" stroke-linecap="round" stroke-linejoin="round"/>
</g>
</g>
</g>
</svg>
