<svg width="16" height="16" viewBox="0 0 16 16" fill="none" xmlns="http://www.w3.org/2000/svg">
<path d="M13.2909 2.70914C12.0424 1.44818 10.3844 0.674881 8.61597 0.528717C6.84752 0.382552 5.08506 0.873149 3.64647 1.91202C2.20789 2.95088 1.1879 4.46963 0.770475 6.19431C0.353052 7.91899 0.56568 9.73606 1.37001 11.3178L0.58046 15.151C0.572268 15.1891 0.572036 15.2285 0.579779 15.2668C0.587522 15.305 0.603073 15.3413 0.62546 15.3732C0.658255 15.4217 0.705069 15.4591 0.759648 15.4803C0.814228 15.5015 0.873977 15.5055 0.930914 15.4919L4.68773 14.6014C6.265 15.3854 8.06925 15.5843 9.77944 15.1629C11.4896 14.7414 12.9948 13.7269 14.0272 12.2998C15.0596 10.8727 15.5522 9.12568 15.4174 7.36949C15.2826 5.6133 14.529 3.96191 13.2909 2.70914ZM12.1196 12.0582C11.2557 12.9196 10.1434 13.4883 8.93923 13.684C7.7351 13.8797 6.49991 13.6926 5.40773 13.1491L4.8841 12.89L2.58091 13.4355L2.58773 13.4069L3.06501 11.0887L2.80864 10.5828C2.25059 9.48678 2.05373 8.24229 2.24626 7.02756C2.43879 5.81284 3.01084 4.69021 3.88046 3.8205C4.97315 2.72815 6.45495 2.11451 8.00001 2.11451C9.54506 2.11451 11.0269 2.72815 12.1196 3.8205C12.1289 3.83118 12.1389 3.8412 12.1496 3.8505C13.2287 4.94567 13.8311 6.42305 13.8255 7.96055C13.8199 9.49805 13.2067 10.971 12.1196 12.0582Z" fill="white"/>
<path d="M11.915 10.3577C11.6328 10.8022 11.1869 11.3463 10.6264 11.4813C9.64458 11.7186 8.13776 11.4895 6.26276 9.74134L6.23958 9.72089C4.59094 8.19225 4.16276 6.91998 4.26639 5.91089C4.32367 5.33816 4.80094 4.81998 5.20321 4.48179C5.26681 4.42752 5.34223 4.38887 5.42343 4.36895C5.50464 4.34903 5.58938 4.34838 5.67088 4.36707C5.75237 4.38575 5.82837 4.42325 5.89278 4.47656C5.9572 4.52986 6.00825 4.5975 6.04185 4.67407L6.64867 6.0377C6.6881 6.12612 6.70271 6.22361 6.69094 6.3197C6.67917 6.4158 6.64146 6.50687 6.58185 6.58316L6.27503 6.98134C6.2092 7.06356 6.16947 7.16359 6.16097 7.26858C6.15246 7.37356 6.17556 7.47869 6.2273 7.57043C6.39912 7.87179 6.81094 8.31498 7.26776 8.72543C7.78049 9.18907 8.34912 9.61316 8.70912 9.7577C8.80545 9.79706 8.91136 9.80666 9.0132 9.78527C9.11503 9.76389 9.20813 9.71249 9.28049 9.6377L9.63639 9.27907C9.70507 9.21135 9.79047 9.16305 9.8839 9.1391C9.97732 9.11514 10.0754 9.11639 10.1682 9.1427L11.6096 9.55179C11.6891 9.57618 11.762 9.61843 11.8226 9.67531C11.8833 9.73218 11.9302 9.80218 11.9597 9.87995C11.9891 9.95771 12.0004 10.0412 11.9927 10.124C11.985 10.2068 11.9584 10.2867 11.915 10.3577Z" fill="white"/>
</svg>
